# xmcd
#
# Track frame offsets:
#	150
#	12758
#	30501
#	51181
#	67167
#	90987
#	113032
#	125990
#	143471
#	158407
#	175858
#	191489
#	207537
#
# Disc length: 3052 seconds
#
# Revision: 0
# Processed by: cddbd v1.5.1PL2 Copyright (c) Steve Scherf et al.
# Submitted via: EasyCDDAExtractor 4.6.0.1
#
DISCID=aa0bea0d
DTITLE=Colin Buchanan - God of Wonders
DYEAR=2003
DGENRE=Christian Country
TTITLE0=Come, Children, Join To Sing
TTITLE1=God Of Wonders
TTITLE2=Jesus Is Lord
TTITLE3=I Am Willing
TTITLE4=Lead Me
TTITLE5=Make My Life A Prayer To You
TTITLE6=The Joy of Following Jesus
TTITLE7=Now I've Found My Home
TTITLE8=Your Rich Mercy
TTITLE9=The Other Side Of Grace
TTITLE10=King Of The Ages
TTITLE11=The Cry Of Heaven (Holy! Holy!)
TTITLE12=Have You Seen My Holy Saviour?
EXTD=
EXTT0=
EXTT1=
EXTT2=
EXTT3=
EXTT4=
EXTT5=
EXTT6=
EXTT7=
EXTT8=
EXTT9=
EXTT10=
EXTT11=
EXTT12=
PLAYORDER=
